<?xml version="1.0" encoding="UTF-8" standalone="no"?>
<svg width="1e3" xmlns="http://www.w3.org/2000/svg" xmlns:xlink="http://www.w3.org/1999/xlink" height="1e3">
 <defs>
  <linearGradient id="linearGradient1797" y2=".49969" xlink:href="#linearGradient20137" x2=".50399" y1="1.1913" x1="-.14603"/>
  <linearGradient id="linearGradient1813" y2=".63712" x2=".87584" y1=".69299" x1=".96761">
   <stop id="stop4648" stop-color="#fff" stop-opacity=".649" offset="0"/>
   <stop id="stop4650" stop-color="#fff" stop-opacity="0" offset="1"/>
  </linearGradient>
  <linearGradient id="linearGradient1795" y2="1.0101" xlink:href="#linearGradient20137" x2="-.16772" y1="-.010692" x1=".68197"/>
  <linearGradient id="linearGradient1791" y2="0.681" xlink:href="#linearGradient20137" x2="-.15751" y1="-.15438" x1=".69719"/>
  <linearGradient id="linearGradient1793" y2="-.044459" xlink:href="#linearGradient20137" x2=".81428" y1=".95439" x1=".17549"/>
  <linearGradient id="linearGradient1799" y2=".44632" xlink:href="#linearGradient20137" x2="-.22850" y1=".49990" x1="1.0079"/>
  <linearGradient id="linearGradient1809" y2="1.0421" xlink:href="#linearGradient20137" x2=".63576" y1="-.11619" x1=".61744"/>
  <linearGradient id="linearGradient1807" y2=".40332" xlink:href="#linearGradient20137" x2=".60128" y1=".81123" x1=".57946"/>
  <linearGradient id="linearGradient1803" y2="-.023093" xlink:href="#linearGradient20137" x2=".73325" y1="1.4357" x1=".79519"/>
  <linearGradient id="linearGradient1805" y2=".83135" xlink:href="#linearGradient20137" x2=".70748" y1=".074549" x1=".64053"/>
  <linearGradient id="linearGradient1789" y2="-.11263" xlink:href="#linearGradient20137" x2="1.397" y1="2.6887" x1="0.5"/>
  <linearGradient id="linearGradient1787" y2="1.4196" xlink:href="#linearGradient20137" x2="1.0619" y1="-.11263" x1="1.397"/>
  <linearGradient id="linearGradient20137">
   <stop id="stop20139" stop-color="#000593" offset="0"/>
   <stop id="stop20141" stop-color="#00023a" offset="1"/>
  </linearGradient>
  <linearGradient id="linearGradient1775" y2="-.058557" xlink:href="#linearGradient20137" x2=".28012" y1="1.575" x1=".28070"/>
  <linearGradient id="linearGradient1785" y2=".88952" xlink:href="#linearGradient20137" x2=".50003" y1="-.12785" x1=".50003"/>
  <linearGradient id="linearGradient1777" y2="-.058557" xlink:href="#linearGradient20137" x2=".28012" y1="-1.3128" x1=".60533"/>
  <linearGradient id="linearGradient1783" y2=".23845" xlink:href="#linearGradient20137" x2=".50003" y1=".70350" x1=".50003"/>
  <linearGradient id="linearGradient1781" y2="1.3847" xlink:href="#linearGradient20137" x2=".84206" y1="-.52410" x1=".69565"/>
  <linearGradient id="linearGradient1779" y2="-.38992" xlink:href="#linearGradient20137" x2=".49996" y1="1.6508" x1=".49996"/>
  <radialGradient id="radialGradient1773" gradientUnits="userSpaceOnUse" cy="1548.1" cx="-32.945" gradientTransform="matrix(-41.592 48.532 -55.326 -49.316 84597 78216)" r="22.421">
   <stop id="stop6536" stop-color="#16009e" offset="0"/>
   <stop id="stop6544" stop-color="#7ccbff" offset=".5"/>
   <stop id="stop6546" stop-color="#fff" offset="1"/>
  </radialGradient>
 </defs>
 <g stroke-linejoin="round">
  <path id="path6532" d="m990.6 500.84a490.09 491.34 0 1 1 -980.17 0 490.09 491.34 0 1 1 980.17 0z" stroke="#000" stroke-linecap="round" stroke-width=".529" fill="url(#radialGradient1773)"/>
  <g fill-rule="evenodd">
   <g stroke-width="2.182">
    <path id="path6596" fill="url(#linearGradient1775)" stroke="url(#linearGradient1777)" d="m312.45 423.81c-0.91116-11.22 16.243-11.774 39.25-8.8711-7.0898 3.8962-4.9203 9.972 4.4511 17.742-14.567 0.37793-29.134 3.0916-43.701-8.8711z"/>
    <path id="path6598" fill="url(#linearGradient1779)" stroke="url(#linearGradient1781)" d="m364.22 423.81c2.7673-1.2872 18.177-2.5025 22.267 0-8.3092 5.2739-14.154 11.177-17.397 17.742-4.746-4.1446-11.076-7.3923-4.8702-17.742z"/>
    <path id="path6600" fill="url(#linearGradient1783)" stroke="url(#linearGradient1785)" d="m403.89 441.55c11.579 11.108 6.6038 28.355 4.9876 44.356 6.036-7.7914 18.449-1.6464 16.626-26.613-7.9535-19.664-14.916-21.149-21.613-17.742z"/>
   </g>
   <g stroke-linecap="round">
    <g stroke-width="3.273">
     <path id="path6664" fill="url(#linearGradient1787)" stroke="url(#linearGradient1789)" d="m625.73 59.16c4.9724 6.546 3.1328 9.933 0.054626 13.322-14.759-5.9144-26.854-7.4074-22.38-13.322 9.0848-2.5141 16.543-2.5389 22.325 0z"/>
     <path id="path6662" fill="url(#linearGradient1791)" stroke="url(#linearGradient1793)" d="m725.19 103.52c-15.195-3.3329-30.836-7.4429-34.794 8.8711 10.173 2.1051 19.218 9.3866 26.095 26.613 2.8994-2.9567 10.753 2.2958 8.6984-8.8711-4.2521-5.9144-8.504-11.828-12.756-17.742 9.7612 5.0291 18.866 1.3644 30.153 26.613 1.3022-2.9567 2.6044-5.9144 3.9066-8.8711-5.2434-15.818-10.487-19.637-21.303-26.613z"/>
     <path id="path6660" fill="url(#linearGradient1795)" stroke="url(#linearGradient1797)" d="m881.76 201.1c-35.647-51.723-96.972-100.46-130.48-124.2 27.612 24.479 23.796 36.63 8.6983 44.356-2.4677 9.43-3.2653 19.429 13.757 35.484 19.336 16.938 16.962 24.819 0 26.613-23.271-5.3466-26.81 1.1985-13.757 17.742 12.43 9.3014 19.906 23.657 29.858 35.484 10.495-3.4269 35.615 11.79 22.332-21.951-6.45-16.672-6.7593-30.212 0-40.147 5.9958-2.1247 8.2762-9.3014 8.6984-17.742 14.723 17.944 40.592 29.57 60.889 44.356z"/>
     <path id="path6636" fill="url(#linearGradient1799)" stroke="url(#linearGradient1799)" d="m905.21 272.13c-46.564-53.716-76.306-44.738-107.17-3.3896-1.2196 10.754 1.0646 21.113 8.6984 30.864-20.248 12.51-10.889 39.461-21.342 48.976 0.87421 11.69 2.033 23.56-4.7531 30.366 9.9059 1.3378 15.366 9.4761 17.397 22.861v58.326c28.821 39.192 58.934 86.55 78.286 65.87 8.9926-12.256 19.388-10.658 32.209-9.2482-8.287-14.37 9.0619-15.383 26.834-18.927 13.737 9.7973 24.683 27.6 19.243 81.401 5.6846 68.012-24.91 136.02-57.042 204.04 71.75-115.66 152.55-299.43 15.602-534.9-2.8994 5.9144-5.0604 17.854-7.9598 23.768z"/>
    </g>
    <path id="path6594" d="m256.02 370.58c21.697 7.1528 37.108 19.291 47.407 35.484l-8.8131 14.684c-17.878-21.775-36.864-31.106-55.99-38.876l17.397-11.293z" stroke="url(#linearGradient1805)" stroke-width="2.182" fill="url(#linearGradient1803)"/>
    <path id="path6562" d="m402.53 935.44c14.448-23.248 25.148-50.023 60.889-53.227 33.813 0.95715 50.553-32.91 69.587-62.098 32.129-9.6225 62.979-21.594 78.286-62.098-13.623-18.72 0.50989-39.901 26.095-62.098 33.514-29.24 20.792-45.735-8.6984-57.609-18.284-4.5598-51.872-13.022-104.38-26.308-27.003-1.9818-23.196-32.766-34.794-49.15-4.9516-16.107-34.074-22.628-69.587-26.613-24.98-40.937-51.635-42.598-78.286-44.356-23.684-17.214-49.47-19.417-78.286 0-1.7309 9.8194-7.955 16.365-22.523 0-23.921 14.97-31.965 3.7844-33.733-17.742 13.214-51.239-8.8821-47.602-30.727-44.356 11.877-11.544 15.708-31.293 17.397-53.227-84.486 67.246-54.432-13.952-52.19-62.098 27.72 1.493 64.617-53.22 104.38 8.8711-5.7732 10.542-4.8309 19.562 4.795 26.613 2.9942-47.154 13.313-72.832 29.999-79.84 19.518-1.194 34.707-16.734 47.389-40.584 6.6543-10.509 22.869-16.141 39.595-21.513-2.1204-14.401 5.9673-20.794 26.095-17.742 15.065 6.8804 30.101 13.261 43.492-8.8711-16.324-3.5511-28.727-10.434-34.794-22.703-12.471-22.893 6.8259-13.388 26.095-3.9104 10.117-8.2439 21.266-12.802 34.794-8.8711-14.46 11.594-20.915 21.934 8.6985 26.613 20.807 5.9969 9.4666-17.942-8.6985-48.235-17.266-20.989-33.022-34.668-43.492-22.734-11.266-19.22-22.232-40.234-43.492 0-27.03 30.776-45.447 42.434-43.492 8.8711-14.03-7.6788-26.236-15.512 0-26.613 9.5861-9.0787 18.897-18.501 43.492-8.8711 18.41-12.538 34.837-7.8394 51.548 5.5977 23.297-7.34 44.464-12.822 44.134-32.211-13.3-16.883-34.302-7.5839-52.19-8.8711 19.425-5.2642 34.05-13.466 69.587-8.8711 13.96 0.54822 18.673 10.526 8.6985 35.484 20.71 39.398 36.143 29.399 55.112-2.6188 10.323-4.204 26.423-5.7893 36.746-9.9933-20.786-18.974-53.639-41.129-62.561-46.275-119.33 0.062972-253.18 38.096-325.04 112.11-34.694 44.088-82.717 82.111-94.686 149.5-9.8849 57.829-26.041 161.66-0.99587 107.76-1.9977 20.24 4.1853 36.307 26.095 44.356 12.449 17.226 25.95 30.164 43.492 26.613 10.153 26.738 15.593 55.878 48.586 70.969 20.341-11.519 26.327 5.2667 21.001 44.356-11.678 10.228-21.241 23.69-26.095 44.356-14.632 25.398 16.894 62.092 43.492 97.582 19.146 35.852 72.169 59.702 69.587 106.45-1.165 43.637 1.7931 85.523 20.995 120.5 26.247 37.834 46.183 52.683 48.592 3.6903z" stroke="url(#linearGradient1809)" stroke-width="3.273" fill="url(#linearGradient1807)"/>
   </g>
  </g>
  <path id="path6630" d="m989.41 499.84a490.09 491.34 0 1 1 -980.17 0 490.09 491.34 0 1 1 980.17 0z" stroke="#000" stroke-linecap="round" stroke-width=".529" fill="url(#linearGradient1813)"/>
 </g>
 <g id="g7757">
  <g id="g2617">
   <g id="g2049">
    <g id="g2875">
     <g id="g2360">
      <g id="g2396">
       <g id="g2398">
        <g id="g1783"></g>
       </g>
      </g>
     </g>
    </g>
    <g id="g3393">
     <g id="g2570"></g>
     <g id="g3842">
      <g id="g3852"></g>
     </g>
    </g>
   </g>
  </g>
 </g>
</svg>
